<?xml version="1.0" encoding="UTF-8" standalone="no"?>
<!-- Created with Inkscape (http://www.inkscape.org/) -->

<svg
   xmlns:dc="http://purl.org/dc/elements/1.1/"
   xmlns:cc="http://creativecommons.org/ns#"
   xmlns:rdf="http://www.w3.org/1999/02/22-rdf-syntax-ns#"
   xmlns:svg="http://www.w3.org/2000/svg"
   xmlns="http://www.w3.org/2000/svg"
   xmlns:sodipodi="http://sodipodi.sourceforge.net/DTD/sodipodi-0.dtd"
   xmlns:inkscape="http://www.inkscape.org/namespaces/inkscape"
   width="24"
   height="24"
   viewBox="0 0 24 24"
   id="svg2"
   version="1.1"
   inkscape:version="0.92.5 (2060ec1f9f, 2020-04-08)"
   sodipodi:docname="orange_flame.svg">
  <defs
     id="defs4" />
  <sodipodi:namedview
     id="base"
     pagecolor="#ffffff"
     bordercolor="#666666"
     borderopacity="1.0"
     inkscape:pageopacity="0.0"
     inkscape:pageshadow="2"
     inkscape:zoom="22.627417"
     inkscape:cx="14.110751"
     inkscape:cy="17.520412"
     inkscape:document-units="px"
     inkscape:current-layer="layer1"
     showgrid="false"
     units="px"
     inkscape:window-width="1920"
     inkscape:window-height="1030"
     inkscape:window-x="1920"
     inkscape:window-y="0"
     inkscape:window-maximized="1" />
  <metadata
     id="metadata7">
    <rdf:RDF>
      <cc:Work
         rdf:about="">
        <dc:format>image/svg+xml</dc:format>
        <dc:type
           rdf:resource="http://purl.org/dc/dcmitype/StillImage" />
        <dc:title></dc:title>
      </cc:Work>
    </rdf:RDF>
  </metadata>
  <g
     inkscape:label="Layer 1"
     inkscape:groupmode="layer"
     id="layer1"
     transform="translate(0,-1028.3622)">
    <path
       style="fill:none;fill-rule:evenodd;stroke:#ff6600;stroke-width:2.00000453;stroke-linecap:round;stroke-linejoin:miter;stroke-miterlimit:4;stroke-dasharray:none;stroke-opacity:1"
       d="m 8.9837421,1049.7318 c 0,0 -6.0024202,-4.4387 -2.250011,-8.3438 4.3949059,-4.5737 3.3004899,-5.0975 3.3125159,-10.5937 6.996597,2.3021 12.492278,15.5104 3.750019,19.0625"
       id="path4368"
       inkscape:connector-curvature="0"
       sodipodi:nodetypes="cscc" />
    <path
       style="fill:none;fill-rule:evenodd;stroke:#ff6600;stroke-width:2.00000453;stroke-linecap:round;stroke-linejoin:miter;stroke-miterlimit:4;stroke-dasharray:none;stroke-opacity:1"
       d="m 9.2535324,1049.7395 c 0,0 -2.5941946,-2.7109 -0.095451,-4.8657 4.4920266,-3.8739 2.7296526,-4.6519 2.7374576,-7.9505 3.22225,1.4191 7.414361,9.4241 1.883041,12.9062"
       id="path4368-6"
       inkscape:connector-curvature="0"
       sodipodi:nodetypes="cscc" />
    <path
       style="fill:none;stroke:none;stroke-width:2.00000453;stroke-linecap:round;stroke-linejoin:miter;stroke-miterlimit:4;stroke-dasharray:none;stroke-opacity:1"
       d="m 16.925267,1047.8225 c 0,-0.01 0.06389,-0.1593 0.14198,-0.3355 1.203411,-2.7141 0.938762,-6.5712 -0.672749,-9.8047 -0.71486,-1.4344 -1.564186,-2.4804 -2.514607,-3.0971 -0.1884,-0.1222 -1.825323,-0.8797 -1.901049,-0.8797 -0.01592,0 -0.02403,0.9733 -0.01908,2.289 0.0092,2.4359 0.0021,2.598 -0.14419,3.3139 -0.156794,0.7673 -0.465191,1.4858 -0.949917,2.2133 -0.491357,0.7374 -1.1179451,1.4488 -1.89593,2.1525 -0.9508966,0.8602 -1.1492186,1.0785 -1.435008,1.5794 -0.3053655,0.5352 -0.4552622,1.0877 -0.4638202,1.7095 -0.0028,0.2018 -0.01611,0.3671 -0.02963,0.3672 -0.05808,4e-4 -1.0549191,-1.0381 -1.2184569,-1.2695 -0.5331406,-0.7541 -0.7716728,-1.5327 -0.6825263,-2.2278 0.06977,-0.5441 0.2240531,-0.9209 0.7175865,-1.7525 0.8433651,-1.4212 1.7115283,-2.5702 3.2618578,-4.3171 1.0253751,-1.1554 1.4337931,-1.6862 1.8144101,-2.3582 0.415709,-0.7338 0.720416,-1.6439 0.851625,-2.5435 0.02883,-0.1976 0.06146,-0.3839 0.07251,-0.4138 0.0173,-0.047 0.06579,-0.026 0.348222,0.1507 2.863541,1.7909 5.595047,5.6827 6.420995,9.1485 0.195681,0.8211 0.26591,1.3749 0.266281,2.0998 7.5e-4,1.4286 -0.371977,2.4913 -1.162605,3.3148 -0.292534,0.3047 -0.805898,0.7256 -0.805899,0.6608 z"
       id="path4391"
       inkscape:connector-curvature="0" />
    <path
       style="fill:#ff6600;fill-opacity:1;stroke:#ff6600;stroke-width:2.00000453;stroke-linecap:round;stroke-linejoin:miter;stroke-miterlimit:4;stroke-dasharray:none;stroke-opacity:1"
       d="m 6.9690463,1045.8764 c -0.6314881,-1.2574 -0.599868,-2.3132 0.09893,-3.303 0.08507,-0.1205 0.3724989,-0.4509 0.6387391,-0.7344 1.7724667,-1.8868 2.6395556,-3.1046 3.0676466,-4.3087 l 0.104322,-0.2934 0.02207,0.3403 c 0.02412,0.3718 0.100672,0.9922 0.221312,1.7934 0.09264,0.6153 0.103018,1.1606 0.02791,1.4668 -0.192876,0.7862 -0.901398,1.6901 -2.3406282,2.9862 -0.8114679,0.7308 -1.0434171,0.9965 -1.3238154,1.5165 -0.1373777,0.2547 -0.201067,0.4118 -0.2848614,0.7024 l -0.05406,0.1875 -0.1775608,-0.3536 z"
       id="path4395"
       inkscape:connector-curvature="0" />
    <path
       style="fill:#ff6600;fill-opacity:1;stroke:#ff6600;stroke-width:2.00000453;stroke-linecap:round;stroke-linejoin:miter;stroke-miterlimit:4;stroke-dasharray:none;stroke-opacity:1"
       d="m 17.18952,1042.6877 c -0.445893,-1.825 -1.517168,-3.7804 -2.831472,-5.1683 -0.463457,-0.4894 -1.052949,-0.9717 -1.547098,-1.2658 -0.103825,-0.062 -0.512212,-0.2558 -0.907527,-0.4312 l -0.718753,-0.3189 -0.02215,-0.9649 c -0.01218,-0.5307 -0.03478,-1.232 -0.05022,-1.5586 -0.01544,-0.3266 -0.02545,-0.5972 -0.02225,-0.6014 0.01467,-0.019 0.619242,0.3774 0.933316,0.6125 0.507575,0.38 0.793964,0.6315 1.292329,1.1348 0.499449,0.5043 0.80064,0.8499 1.179143,1.353 1.424614,1.8933 2.374226,4.0915 2.689041,6.2245 0.04306,0.2918 0.122217,1.3227 0.102928,1.3406 -0.0046,0 -0.04837,-0.1561 -0.09728,-0.3563 z"
       id="path4397"
       inkscape:connector-curvature="0" />
    <path
       style="fill:#ff6600;stroke-width:0.04419417"
       d="m 13.624616,22.450223 c -0.379264,-0.06682 -0.713652,-0.389281 -0.798952,-0.770443 -0.04285,-0.191484 -0.03941,-0.26963 0.0207,-0.46933 0.09218,-0.306264 0.184611,-0.411412 0.650762,-0.740257 1.399357,-0.987176 2.036965,-2.31688 1.971862,-4.112233 -0.0498,-1.373467 -0.48932,-2.772259 -1.30006,-4.137549 -0.348596,-0.587038 -0.964891,-1.436311 -1.042292,-1.436311 -0.0097,0 -2.65e-4,0.114353 0.02088,0.254117 0.02114,0.139764 0.03928,0.53254 0.04031,0.872835 0.0016,0.525446 -0.01532,0.685341 -0.112168,1.06066 -0.196343,0.760915 -0.617117,1.520583 -1.272897,2.298097 -0.316128,0.37481 -0.913542,0.972897 -1.9865023,1.988738 -0.5905296,0.559092 -0.7141151,0.786376 -0.7368472,1.355126 -0.010657,0.266639 0.00723,0.461157 0.05894,0.640815 0.1053594,0.366079 0.4271279,0.957573 0.7145191,1.313473 0.2940514,0.364146 0.3687944,0.528844 0.3687944,0.812644 0,0.419873 -0.3049016,0.822823 -0.710662,0.939194 -0.1982931,0.05687 -0.5496164,0.05447 -0.7698431,-0.0053 C 8.4998335,22.249078 8.0119426,21.869236 7.3558591,21.236022 5.8813213,19.812884 4.9765602,18.363131 4.6253715,16.860799 c -0.063248,-0.270564 -0.081757,-0.514345 -0.078855,-1.038563 0.00327,-0.590062 0.01969,-0.744464 0.1184874,-1.11395 0.228055,-0.85289 0.6774709,-1.627015 1.3710879,-2.361716 C 7.1663403,11.149375 7.7487605,10.457068 8.2384146,9.7287305 8.6160265,9.1670504 8.7715765,8.8637074 8.9386118,8.3632543 9.1401784,7.7593418 9.175882,7.344134 9.1446597,5.9670374 9.0782977,3.0400183 9.0619706,1.1055762 9.1036276,1.1055762 c 0.023659,0 0.4573018,0.1397309 0.9636494,0.3105132 1.887365,0.6365754 3.131467,1.4205113 4.62104,2.9118192 1.788963,1.7910476 3.077822,3.887145 3.885957,6.3198134 1.164424,3.505178 0.860308,6.767356 -0.845342,9.067765 -0.742583,1.001523 -1.691914,1.773889 -2.933171,2.3864 -0.640183,0.315905 -0.906183,0.395022 -1.171145,0.348336 z"
       id="path338"
       inkscape:connector-curvature="0"
       transform="translate(0,1028.3622)" />
  </g>
</svg>
