<?xml version="1.0" encoding="UTF-8" standalone="no"?>
<!-- Created with Inkscape (http://www.inkscape.org/) -->

<svg
   xmlns:dc="http://purl.org/dc/elements/1.1/"
   xmlns:cc="http://creativecommons.org/ns#"
   xmlns:rdf="http://www.w3.org/1999/02/22-rdf-syntax-ns#"
   xmlns:svg="http://www.w3.org/2000/svg"
   xmlns="http://www.w3.org/2000/svg"
   xmlns:sodipodi="http://sodipodi.sourceforge.net/DTD/sodipodi-0.dtd"
   xmlns:inkscape="http://www.inkscape.org/namespaces/inkscape"
   width="48"
   height="48"
   viewBox="0 0 48 48.000001"
   id="svg2"
   version="1.1"
   inkscape:version="0.91 r13725"
   sodipodi:docname="flame.svg">
  <defs
     id="defs4" />
  <sodipodi:namedview
     id="base"
     pagecolor="#ffffff"
     bordercolor="#666666"
     borderopacity="1.0"
     inkscape:pageopacity="0.0"
     inkscape:pageshadow="2"
     inkscape:zoom="16"
     inkscape:cx="36.120585"
     inkscape:cy="24.447299"
     inkscape:document-units="px"
     inkscape:current-layer="layer1"
     showgrid="false"
     units="px"
     inkscape:window-width="1920"
     inkscape:window-height="1027"
     inkscape:window-x="1920"
     inkscape:window-y="0"
     inkscape:window-maximized="1" />
  <metadata
     id="metadata7">
    <rdf:RDF>
      <cc:Work
         rdf:about="">
        <dc:format>image/svg+xml</dc:format>
        <dc:type
           rdf:resource="http://purl.org/dc/dcmitype/StillImage" />
        <dc:title></dc:title>
      </cc:Work>
    </rdf:RDF>
  </metadata>
  <g
     inkscape:label="Layer 1"
     inkscape:groupmode="layer"
     id="layer1"
     transform="translate(0,-1004.3622)">
    <path
       style="fill:none;fill-rule:evenodd;stroke:#000000;stroke-width:4;stroke-linecap:round;stroke-linejoin:miter;stroke-miterlimit:4;stroke-dasharray:none;stroke-opacity:1"
       d="m 19.3125,1046.9247 c 0,0 -12.0047811,-8.8773 -4.5,-16.6875 8.789769,-9.1475 6.600948,-10.195 6.625,-21.1875 13.993126,4.6042 24.984434,31.0208 7.5,38.125"
       id="path4368"
       inkscape:connector-curvature="0"
       sodipodi:nodetypes="cscc" />
    <path
       style="fill:none;fill-rule:evenodd;stroke:#000000;stroke-width:4;stroke-linecap:round;stroke-linejoin:miter;stroke-miterlimit:4;stroke-dasharray:none;stroke-opacity:1"
       d="m 19.852079,1046.9402 c 0,0 -5.188364,-5.4218 -0.190897,-9.7315 8.98401,-7.7478 5.459278,-9.3037 5.474888,-15.9009 6.444468,2.8382 14.828653,18.8481 3.766064,25.8124"
       id="path4368-6"
       inkscape:connector-curvature="0"
       sodipodi:nodetypes="cscc" />
    <path
       style="fill:none;stroke:none;stroke-width:4;stroke-linecap:round;stroke-linejoin:miter;stroke-miterlimit:4;stroke-dasharray:none;stroke-opacity:1"
       d="m 35.195472,38.743885 c 0,-0.01671 0.127783,-0.318582 0.283961,-0.67083 2.40681,-5.428371 1.877514,-13.142444 -1.345493,-19.609514 -1.429713,-2.868768 -3.128357,-4.960877 -5.02919,-6.194126 -0.376798,-0.244464 -3.650627,-1.759529 -3.80208,-1.759529 -0.03184,0 -0.04806,1.94666 -0.03816,4.578125 0.01833,4.871827 0.0042,5.195966 -0.288377,6.627807 -0.313587,1.534533 -0.930378,2.971623 -1.899824,4.42649 -0.982711,1.474774 -2.235881,2.897565 -3.791843,4.305078 -1.901784,1.720343 -2.298426,2.156883 -2.870002,3.158695 -0.610727,1.070433 -0.91052,2.175403 -0.927635,3.419058 -0.0056,0.403701 -0.03222,0.73417 -0.05926,0.734375 -0.116161,8.81e-4 -2.109828,-2.076214 -2.436902,-2.538877 -1.066276,-1.508301 -1.543338,-3.065522 -1.365046,-4.45577 0.139544,-1.088107 0.448104,-1.841676 1.435166,-3.504981 1.686722,-2.842303 3.42304,-5.14035 6.523684,-8.63421 2.05074,-2.310809 2.867572,-3.372418 3.628802,-4.716232 0.831413,-1.467711 1.440826,-3.287838 1.703242,-5.0870577 0.05766,-0.3953125 0.122915,-0.7677707 0.14502,-0.8276849 0.03459,-0.093765 0.13158,-0.051778 0.69644,0.3014989 5.727054,3.5818317 11.190039,11.3654017 12.841927,18.2969637 0.39136,1.642202 0.531818,2.749817 0.532561,4.199612 0.0015,2.857222 -0.743953,4.982553 -2.3252,6.629617 -0.585065,0.609417 -1.611788,1.451218 -1.611788,1.321492 z"
       id="path4391"
       inkscape:connector-curvature="0"
       transform="translate(0,1004.3622)" />
    <path
       style="fill:#000000;fill-opacity:1;stroke:none;stroke-width:4;stroke-linecap:round;stroke-linejoin:miter;stroke-miterlimit:4;stroke-dasharray:none;stroke-opacity:1"
       d="m 15.283129,34.851806 c -1.26297,-2.514931 -1.199731,-4.626391 0.197854,-6.60601 0.170132,-0.240986 0.744994,-0.901923 1.277471,-1.46875 3.544916,-3.773602 5.279086,-6.209368 6.135263,-8.617418 l 0.208644,-0.586823 0.04414,0.680573 c 0.04823,0.74357 0.201341,1.984362 0.442619,3.586823 0.185283,1.230566 0.206037,2.321189 0.05582,2.933507 -0.385749,1.57243 -1.802785,3.380332 -4.681232,5.972467 -1.622927,1.461499 -2.086824,1.992905 -2.647617,3.032912 -0.274754,0.509538 -0.402133,0.82364 -0.56972,1.404864 l -0.108126,0.375 -0.35512,-0.707145 z"
       id="path4395"
       inkscape:connector-curvature="0"
       transform="translate(0,1004.3622)" />
    <path
       style="fill:#000000;fill-opacity:1;stroke:none;stroke-width:4;stroke-linecap:round;stroke-linejoin:miter;stroke-miterlimit:4;stroke-dasharray:none;stroke-opacity:1"
       d="M 35.723977,28.474398 C 34.832195,24.824451 32.689655,20.913633 30.061061,18.137773 29.13415,17.158932 27.955173,16.194317 26.966879,15.606177 26.75923,15.482603 25.94246,15.094505 25.151835,14.743737 l -1.4375,-0.637762 -0.04431,-1.929762 c -0.02437,-1.061369 -0.06957,-2.4641371 -0.100443,-3.1172621 -0.03087,-0.653125 -0.0509,-1.1944137 -0.0445,-1.2028637 0.02934,-0.03873 1.238479,0.7548802 1.866623,1.2251455 1.015145,0.7599978 1.587919,1.2629253 2.584645,2.2694633 0.998892,1.008725 1.601273,1.699932 2.358274,2.706022 2.849214,3.786737 4.748431,8.183002 5.378056,12.449006 0.08613,0.583565 0.244432,2.645372 0.205855,2.681134 -0.0092,0.0085 -0.09674,-0.312089 -0.194565,-0.71246 z"
       id="path4397"
       inkscape:connector-curvature="0"
       transform="translate(0,1004.3622)" />
  </g>
</svg>
