<?xml version="1.0" encoding="UTF-8" standalone="no"?>
<svg
   xmlns:dc="http://purl.org/dc/elements/1.1/"
   xmlns:cc="http://creativecommons.org/ns#"
   xmlns:rdf="http://www.w3.org/1999/02/22-rdf-syntax-ns#"
   xmlns:svg="http://www.w3.org/2000/svg"
   xmlns="http://www.w3.org/2000/svg"
   xmlns:sodipodi="http://sodipodi.sourceforge.net/DTD/sodipodi-0.dtd"
   xmlns:inkscape="http://www.inkscape.org/namespaces/inkscape"
   width="24"
   height="24"
   viewBox="0 0 24 24"
   version="1.1"
   id="svg424"
   sodipodi:docname="green_heart_solid.svg"
   inkscape:version="0.92.5 (2060ec1f9f, 2020-04-08)">
  <metadata
     id="metadata430">
    <rdf:RDF>
      <cc:Work
         rdf:about="">
        <dc:format>image/svg+xml</dc:format>
        <dc:type
           rdf:resource="http://purl.org/dc/dcmitype/StillImage" />
        <dc:title></dc:title>
      </cc:Work>
    </rdf:RDF>
  </metadata>
  <defs
     id="defs428" />
  <sodipodi:namedview
     pagecolor="#ffffff"
     bordercolor="#666666"
     borderopacity="1"
     objecttolerance="10"
     gridtolerance="10"
     guidetolerance="10"
     inkscape:pageopacity="0"
     inkscape:pageshadow="2"
     inkscape:window-width="1920"
     inkscape:window-height="1030"
     id="namedview426"
     showgrid="false"
     inkscape:zoom="35.083333"
     inkscape:cx="12"
     inkscape:cy="12"
     inkscape:window-x="1920"
     inkscape:window-y="0"
     inkscape:window-maximized="1"
     inkscape:current-layer="svg424" />
  <path
     d="M0 0h24v24H0z"
     fill="none"
     id="path420" />
  <path
     d="M12 21.35l-1.45-1.32C5.4 15.36 2 12.28 2 8.5 2 5.42 4.42 3 7.5 3c1.74 0 3.41.81 4.5 2.09C13.09 3.81 14.76 3 16.5 3 19.58 3 22 5.42 22 8.5c0 3.78-3.4 6.86-8.55 11.54L12 21.35z"
     id="path422" />
  <path
     style="fill:#008000;stroke-width:0.02850356"
     d="M 10.503563,19.973421 C 7.2108995,16.969848 6.1689341,15.967162 5.0435501,14.71924 3.6388585,13.161597 2.755804,11.776329 2.3271499,10.457957 1.8385735,8.955289 1.9373315,7.3257221 2.5962894,6.0169913 3.7612384,3.7033309 6.3347096,2.5492649 8.8971748,3.1913766 c 0.796289,0.199537 1.6643472,0.6295781 2.2963082,1.1376043 0.09085,0.073036 0.309486,0.2757633 0.485852,0.4505058 L 12,5.0972004 12.320665,4.7794867 c 0.529039,-0.5241697 0.949617,-0.8274266 1.574822,-1.1355224 1.352272,-0.6663884 2.755744,-0.8050913 4.159097,-0.4110369 0.995773,0.279608 1.972425,0.9073231 2.62884,1.689611 0.854671,1.0185607 1.290774,2.2247688 1.292301,3.5743389 0.0027,2.4012757 -1.28893,4.6148637 -4.57913,7.8475917 -1.265631,1.243522 -5.317457,4.961664 -5.401919,4.957049 -0.02059,-0.0011 -0.691588,-0.598769 -1.491113,-1.328097 z"
     id="path432"
     inkscape:connector-curvature="0" />
</svg>
