<?xml version="1.0" encoding="UTF-8" standalone="no"?>
<svg
   xmlns:dc="http://purl.org/dc/elements/1.1/"
   xmlns:cc="http://creativecommons.org/ns#"
   xmlns:rdf="http://www.w3.org/1999/02/22-rdf-syntax-ns#"
   xmlns:svg="http://www.w3.org/2000/svg"
   xmlns="http://www.w3.org/2000/svg"
   xmlns:sodipodi="http://sodipodi.sourceforge.net/DTD/sodipodi-0.dtd"
   xmlns:inkscape="http://www.inkscape.org/namespaces/inkscape"
   width="24"
   height="24"
   viewBox="0 0 24 24"
   version="1.1"
   id="svg371"
   sodipodi:docname="green_heart_border.svg"
   inkscape:version="0.92.5 (2060ec1f9f, 2020-04-08)">
  <metadata
     id="metadata377">
    <rdf:RDF>
      <cc:Work
         rdf:about="">
        <dc:format>image/svg+xml</dc:format>
        <dc:type
           rdf:resource="http://purl.org/dc/dcmitype/StillImage" />
        <dc:title></dc:title>
      </cc:Work>
    </rdf:RDF>
  </metadata>
  <defs
     id="defs375" />
  <sodipodi:namedview
     pagecolor="#ffffff"
     bordercolor="#666666"
     borderopacity="1"
     objecttolerance="10"
     gridtolerance="10"
     guidetolerance="10"
     inkscape:pageopacity="0"
     inkscape:pageshadow="2"
     inkscape:window-width="1920"
     inkscape:window-height="1030"
     id="namedview373"
     showgrid="false"
     inkscape:zoom="35.083333"
     inkscape:cx="12"
     inkscape:cy="12"
     inkscape:window-x="1920"
     inkscape:window-y="0"
     inkscape:window-maximized="1"
     inkscape:current-layer="svg371" />
  <path
     d="M0 0h24v24H0z"
     fill="none"
     id="path367" />
  <path
     d="M16.5 3c-1.74 0-3.41.81-4.5 2.09C10.91 3.81 9.24 3 7.5 3 4.42 3 2 5.42 2 8.5c0 3.78 3.4 6.86 8.55 11.54L12 21.35l1.45-1.32C18.6 15.36 22 12.28 22 8.5 22 5.42 19.58 3 16.5 3zm-4.4 15.55l-.1.1-.1-.1C7.14 14.24 4 11.39 4 8.5 4 6.5 5.5 5 7.5 5c1.54 0 3.04.99 3.57 2.36h1.87C13.46 5.99 14.96 5 16.5 5c2 0 3.5 1.5 3.5 3.5 0 2.89-3.14 5.74-7.9 10.05z"
     id="path369" />
  <path
     style="fill:#008000;stroke-width:0.02850356"
     d="M 11.2019,20.613115 C 8.5797133,18.22796 7.914482,17.612534 6.9189355,16.650809 4.2872568,14.108537 2.9102796,12.251434 2.3271499,10.457957 1.8385735,8.955289 1.9373315,7.3257221 2.5962894,6.0169913 3.7612384,3.7033309 6.3347096,2.5492649 8.8971748,3.1913766 c 0.796289,0.199537 1.6643472,0.6295781 2.2963082,1.1376043 0.09085,0.073036 0.309486,0.2757633 0.485852,0.4505058 L 12,5.0972004 12.320665,4.7794867 c 0.529039,-0.5241697 0.949617,-0.8274266 1.574822,-1.1355224 1.352272,-0.6663884 2.755744,-0.8050913 4.159097,-0.4110369 0.995773,0.279608 1.972425,0.9073231 2.62884,1.689611 0.854671,1.0185607 1.290774,2.2247688 1.292301,3.5743389 0.0029,2.5213277 -1.40828,4.8256477 -5.125997,8.3705437 -1.07298,1.023102 -1.331834,1.262695 -3.245475,3.003993 -0.865641,0.787682 -1.590344,1.431388 -1.610451,1.430458 -0.02011,-9.31e-4 -0.376462,-0.310871 -0.791902,-0.688757 z m 1.685891,-2.758483 c 2.928853,-2.660233 4.338432,-4.063653 5.339244,-5.315915 0.843337,-1.055221 1.385215,-2.021764 1.623018,-2.8949623 C 20.295657,8.007525 19.784163,6.452276 18.515613,5.5862544 18.132621,5.3247911 17.63948,5.1290706 17.148285,5.043582 16.818754,4.98623 16.193665,4.986606 15.863504,5.0443559 c -0.8756,0.1531552 -1.791343,0.664706 -2.322809,1.2975643 -0.204024,0.2429461 -0.437631,0.6031451 -0.531408,0.8193777 L 12.933166,7.3368171 12.0034,7.3360509 11.073634,7.3352845 10.992566,7.153729 C 10.522954,6.1020208 9.3670444,5.2545011 8.1100267,5.0402345 7.698073,4.9700144 6.9842671,4.9950545 6.6128266,5.0927558 6.233109,5.1926343 5.9161268,5.3203555 5.6479608,5.481528 4.187024,6.3595767 3.631501,8.1090792 4.2364081,9.9269153 c 0.2432244,0.7309257 0.7897072,1.6743037 1.4551822,2.5120397 0.9582696,1.206321 2.2492427,2.515193 4.6268547,4.691003 1.405159,1.285896 1.666764,1.520785 1.686826,1.51457 0.01074,-0.0033 0.407871,-0.35878 0.88252,-0.789896 z"
     id="path379"
     inkscape:connector-curvature="0" />
</svg>
